<svg width="360" height="360" viewBox="0 0 360 360" xmlns="http://www.w3.org/2000/svg">
      <defs><linearGradient id="g" x1="0%" y1="0%" x2="0%" y2="100%"><stop offset="0%" stop-color="#E3C88A"/><stop offset="100%" stop-color="#C9A96E"/></linearGradient></defs>
      <circle cx="180.0" cy="180.0" r="154.0" fill="#FFFFFF" stroke="#DCE2E8" stroke-width="2"/><g transform="translate(20.62,77.24) scale(1.5414)">
      <rect x="116" y="10" width="36" height="34" rx="14" fill="none" stroke="#C9A96E" stroke-width="10"/>
      <line x1="134" y1="10" x2="134" y2="0" stroke="#C9A96E" stroke-width="7" stroke-linecap="round"/>
      <circle cx="134" cy="-4" r="5" fill="#C9A96E"/>
      <circle cx="127" cy="24" r="3.8" fill="#C9A96E"/><circle cx="141" cy="24" r="3.8" fill="#C9A96E"/>
      <circle cx="80" cy="28" r="19" fill="none" stroke="#0F2B46" stroke-width="12"/>
      <circle cx="107.0" cy="30" r="7" fill="#C9A96E"/>
      <path d="M 52,70 C 52,48 64,42 80,42 C 94,42 104,50 106,70"
            fill="none" stroke="#0F2B46" stroke-width="12" stroke-linecap="round"/>
      <path d="M 112,68 C 114,48 124,42 138,42 C 150,44 156,54 156,68"
            fill="none" stroke="#C9A96E" stroke-width="10" stroke-linecap="round"/>
      <!-- 四足终点统一到同一水平线 y=128（内侧交叉腿延长至同线，脚端外沿按描边补偿）-->
      <line x1="70" y1="66" x2="56" y2="128" stroke="#0F2B46" stroke-width="11" stroke-linecap="round"/>
      <line x1="140" y1="64" x2="152" y2="128" stroke="#C9A96E" stroke-width="10" stroke-linecap="round"/>
      <line x1="86" y1="66" x2="127.3" y2="128" stroke="#0F2B46" stroke-width="11" stroke-linecap="round"/>
      <line x1="128" y1="64" x2="86.9" y2="128" stroke="#C9A96E" stroke-width="10" stroke-linecap="round"/>
      <circle cx="107" cy="93" r="6.5" fill="#C9A96E"/>
    </g><text x="180.00" y="297.16" font-family="DejaVu Sans" font-size="18.150" text-anchor="middle"><tspan fill="#0F2B46" font-weight="normal">www.</tspan><tspan fill="#0F2B46" font-weight="normal">human</tspan><tspan fill="#C9A96E" font-weight="bold">AI</tspan><tspan fill="#0F2B46" font-weight="normal">fit</tspan><tspan fill="#0F2B46" font-weight="normal">.com</tspan></text></svg>