<svg width="100" height="100" viewBox="0 0 100 100" xmlns="http://www.w3.org/2000/svg">
  <defs><linearGradient id="gm" x1="0%" y1="0%" x2="0%" y2="100%"><stop offset="0%" stop-color="#E3C88A"/><stop offset="100%" stop-color="#C9A96E"/></linearGradient></defs>
  <circle cx="50.0" cy="50.0" r="48" fill="#FFFFFF" stroke="#DCE2E8" stroke-width="1.5"/>
  <g transform="translate(-18.45,8.82) scale(0.6620)">
      <rect x="116" y="10" width="36" height="34" rx="14" fill="none" stroke="url(#gm)" stroke-width="10"/>
      <line x1="134" y1="10" x2="134" y2="0" stroke="url(#gm)" stroke-width="7" stroke-linecap="round"/>
      <circle cx="134" cy="-4" r="5" fill="#C9A96E"/>
      <circle cx="127" cy="24" r="3.8" fill="#C9A96E"/><circle cx="141" cy="24" r="3.8" fill="#C9A96E"/>
      <circle cx="80" cy="28" r="19" fill="none" stroke="#0F2B46" stroke-width="12"/>
      <circle cx="107.0" cy="30" r="7" fill="#C9A96E"/>
      <path d="M 52,70 C 52,48 64,42 80,42 C 94,42 104,50 106,70" fill="none" stroke="#0F2B46" stroke-width="12" stroke-linecap="round"/>
      <path d="M 112,68 C 114,48 124,42 138,42 C 150,44 156,54 156,68" fill="none" stroke="url(#gm)" stroke-width="10" stroke-linecap="round"/>
      <line x1="70" y1="66" x2="56" y2="128" stroke="#0F2B46" stroke-width="11" stroke-linecap="round"/>
      <line x1="140" y1="64" x2="152" y2="128" stroke="url(#gm)" stroke-width="10" stroke-linecap="round"/>
      <line x1="86" y1="66" x2="127.3" y2="128" stroke="#0F2B46" stroke-width="11" stroke-linecap="round"/>
      <line x1="128" y1="64" x2="86.9" y2="128" stroke="url(#gm)" stroke-width="10" stroke-linecap="round"/>
      <circle cx="107" cy="93" r="6.5" fill="#C9A96E"/>
    </g>
</svg>